<?xml version="1.0" encoding="UTF-8" standalone="no"?>
<!-- Created with Inkscape (http://www.inkscape.org/) -->

<svg
   width="0.69999999in"
   height="1.15in"
   viewBox="0 0 17.78 29.209998"
   version="1.1"
   id="svg54016"
   inkscape:version="1.4 (e7c3feb100, 2024-10-09)"
   sodipodi:docname="tethered_fly_icon.svg"
   inkscape:export-filename="/home/wbd/work/images/fruitfly/tethered_fly_icon.bmp"
   inkscape:export-xdpi="96"
   inkscape:export-ydpi="96"
   xmlns:inkscape="http://www.inkscape.org/namespaces/inkscape"
   xmlns:sodipodi="http://sodipodi.sourceforge.net/DTD/sodipodi-0.dtd"
   xmlns="http://www.w3.org/2000/svg"
   xmlns:svg="http://www.w3.org/2000/svg">
  <sodipodi:namedview
     id="namedview54018"
     pagecolor="#ffffff"
     bordercolor="#666666"
     borderopacity="1.0"
     inkscape:pageshadow="2"
     inkscape:pageopacity="0.0"
     inkscape:pagecheckerboard="0"
     inkscape:document-units="mm"
     showgrid="false"
     units="in"
     inkscape:zoom="4.6777596"
     inkscape:cx="24.370641"
     inkscape:cy="44.038176"
     inkscape:window-width="1273"
     inkscape:window-height="2103"
     inkscape:window-x="0"
     inkscape:window-y="0"
     inkscape:window-maximized="0"
     inkscape:current-layer="layer1"
     inkscape:showpageshadow="2"
     inkscape:deskcolor="#d1d1d1" />
  <defs
     id="defs54013" />
  <g
     inkscape:label="Layer 1"
     inkscape:groupmode="layer"
     id="layer1">
    <path
       style="color:#000000;fill:none;fill-opacity:1;stroke:#000000;stroke-width:0.514145;stroke-miterlimit:6.30864;stroke-dasharray:none;stroke-opacity:1"
       d="m 9.3594897,24.681194 -2.836947,-2.679151 -4.0188863,-1.261002 -0.058547,0.04481 c -0.9655969,0.431106 -1.54937166,0.994405 -1.54937166,1.609862 0,1.357338 2.83662756,2.457042 6.33607296,2.457042 0.7476379,0 1.4658381,-0.05023 2.1315494,-0.14242"
       id="path55848" />
    <path
       style="color:#000000;fill:none;fill-opacity:1;stroke:#000000;stroke-width:0.514145;stroke-miterlimit:6.30864;stroke-dasharray:none;stroke-opacity:1"
       d="m 10.225867,24.523351 -2.0483361,-2.757886 0.1574674,-1.654988 -0.00581,-0.140184 c 3.0148907,0.189153 5.2386047,1.203075 5.2386047,2.42567 0,0.973279 -1.223551,1.656914 -3.340701,2.054412"
       id="path55854" />
    <path
       style="color:#000000;fill:none;fill-opacity:1;stroke:#000000;stroke-width:0.514145;stroke-miterlimit:6.30864;stroke-dasharray:none;stroke-opacity:1"
       d="M 9.0188906,14.44104 14.973522,1.1414192 16.635368,1.8499967 10.680737,15.149617 Z"
       id="path55860" />
    <path
       style="color:#000000;fill:none;fill-opacity:1;stroke:#000000;stroke-width:0.514145;stroke-miterlimit:6.30864;stroke-dasharray:none;stroke-opacity:1"
       d="m 7.3241023,20.635747 2.3875319,-5.618246 0.041037,0.01743 -2.3875318,5.618247 z"
       id="path55866" />
    <path
       style="fill:none;fill-opacity:1;stroke:#000000;stroke-width:0.514145;stroke-linecap:butt;stroke-linejoin:miter;stroke-miterlimit:6.30864;stroke-dasharray:none;stroke-opacity:1"
       d="m 5.1282033,21.4914 -0.1006844,-0.350715 0.061676,-0.360107 0.1014112,-0.285515 0.1614996,-0.235432 0.1926515,-0.197587 0.3068785,-0.195049 0.2283584,-0.09013 0.2933987,-0.03543 0.2972624,0.061 0.2943684,0.14854 0.1739887,0.195119 0.080521,0.283853 v 0.3364 h 0.025569"
       id="path56108" />
    <path
       style="fill:none;fill-opacity:1;stroke:#000000;stroke-width:0.514145;stroke-linecap:butt;stroke-linejoin:miter;stroke-miterlimit:6.30864;stroke-dasharray:none;stroke-opacity:1"
       d="m 5.6443162,21.729724 0.061474,-0.179224 0.1342809,-0.188493 0.1547858,-0.145937 0.2480125,-0.146402 0.2484608,-0.114651 0.3510729,-0.05762 0.3263903,0.0087 0.3477818,0.101534 0.3362368,0.220115 0.1832735,0.157654 0.1191451,0.119994 0.041379,0.02635"
       id="path56143" />
    <path
       style="fill:none;fill-opacity:1;stroke:#000000;stroke-width:0.514145;stroke-linecap:butt;stroke-linejoin:miter;stroke-miterlimit:6.30864;stroke-dasharray:none;stroke-opacity:1"
       d="m 8.7214189,22.487988 0.031645,0.261788 -0.00672,0.347476 -0.034828,0.213549"
       id="path56291" />
    <path
       style="fill:none;fill-opacity:1;stroke:#000000;stroke-width:0.514145;stroke-linecap:butt;stroke-linejoin:miter;stroke-miterlimit:6.30864;stroke-dasharray:none;stroke-opacity:1"
       d="m 7.7660461,23.165895 0.1931859,-0.03673 c 0,0 0.160019,0.0101 0.1796747,0.01457 0.019656,0.0045 0.3095907,0.08041 0.3095907,0.08041 l 0.08749,0.03467 0.1755239,0.05198 0.2809243,0.214385 0.2713383,0.213564 0.2387091,0.255781 0.2104433,0.240916 0.1830967,0.312552 0.111195,0.192302 0.151939,0.295444 0.108432,0.225937 0.112276,0.316859 0.09119,0.358918 0.05539,0.366926 0.01084,0.294461 -0.0558,0.336068 -0.08137,0.334713 -0.190992,0.34828 -0.2178856,0.264744 -0.181274,0.176678 -0.1497042,0.0268 L 9.3350614,28.042811 8.9795648,27.929016 8.6721871,27.788987 8.3778675,27.635301 8.0131696,27.396187 7.7001014,27.116318 7.4730541,26.815561 7.2729086,26.463984 7.0946929,26.183615 6.9670369,25.872511 6.8093088,25.527531 6.7603929,25.23987 6.6651464,24.96808 6.6214287,24.83494 v 0"
       id="path56326" />
  </g>
</svg>
